<svg xmlns="http://www.w3.org/2000/svg" viewBox="0 0 1024 1024" version="1.1"><path d="M713.6 510.6c-121.3 0-220.1-98.7-220.1-220.1S592.2 70.5 713.6 70.5s220.1 98.7 220.1 220.1-98.7 220.1-220.1 220.1z m0-393.8c-95.8 0-173.8 78-173.8 173.8S617.8 464.3 713.6 464.3s173.8-77.9 173.8-173.8S809.4 116.8 713.6 116.8zM702.7 932.9H161.1c-38.3 0-69.5-31.2-69.5-69.5V247.4c0-38.3 31.2-69.5 69.5-69.5H576.2l-17.3 33.7c-12.7 24.8-19.1 51.4-19.1 79 0 95.8 78 173.8 173.8 173.8 10.1 0 20.3-1 31.3-3l27.3-5v407.1c0 38.3-31.2 69.5-69.5 69.5zM161.1 224.2c-12.8 0-23.2 10.4-23.2 23.2v616c0 12.8 10.4 23.2 23.2 23.2H702.7c12.8 0 23.2-10.4 23.2-23.2V510.2c-126.7 7.5-232.4-94.3-232.4-219.7 0-22.8 3.5-45 10.3-66.3H161.1zM690.4 186.7h46.3v146.6h-46.3zM690.4 361.9h46.3v45.2h-46.3zM276.7 500.1h310.5v49H276.7zM276.7 618.5h310.5v49H276.7zM432.2 545.3L294.3 412.8l32.1-33.4 105.2 101.2 101.7-101 32.6 32.9zM408.8 513h46.3v263h-46.3z" p-id="1867"></path></svg>