<?xml version="1.0" standalone="no"?><!DOCTYPE svg PUBLIC "-//W3C//DTD SVG 1.1//EN" "http://www.w3.org/Graphics/SVG/1.1/DTD/svg11.dtd"><svg t="1700632710463" class="icon" viewBox="0 0 1024 1024" version="1.1" xmlns="http://www.w3.org/2000/svg" p-id="9290" xmlns:xlink="http://www.w3.org/1999/xlink" width="200" height="200"><path d="M483.74 757.62H189.77c-38.71 0-70.22-31.5-70.22-70.22V278.1c0-38.71 31.5-70.22 70.22-70.22H836.4c38.71 0 70.22 31.5 70.22 70.22v191.84c0 13.61 11.5 25.11 25.11 25.11s25.11-11.5 25.11-25.11V278.1c0-66.77-54.33-121.1-121.1-121.1H189.77c-66.77 0-121.1 54.33-121.1 121.1v409.3c0 66.77 54.33 121.1 121.1 121.1h293.97c13.38 0 25.11-12.04 25.11-25.78 0.01-13.59-11.49-25.1-25.11-25.1z" p-id="9291"></path><path d="M849.38 411.15H550.74c-15.41 0-27.94 12.53-27.94 27.94 0 15.41 12.53 27.94 27.94 27.94h298.63c15.41 0 27.94-12.53 27.94-27.94 0.01-15.4-12.53-27.94-27.93-27.94zM444.6 541.58l-0.34-0.23c-13.14-9.67-32.65-20.32-57.98-31.67l-0.35-0.14c-8.8-3.06-15.81-1.23-21.4 5.59l-0.38 0.47-0.24 0.56c-3.78 8.73-2.57 16.09 3.69 22.51l0.45 0.39c4.61 3.58 23.55 13.9 57.88 31.52l0.17 0.09c3.77 1.72 7.27 2.58 10.5 2.58 5.8 0 10.78-2.77 15.06-8.32l0.28-0.37 0.2-0.41c4.57-9.51 2.09-16.89-7.54-22.57z m-203.25-24.73c-5.73-8-13.29-9.49-23.21-4.53-0.75 0.39-2.73 1.45-29.02 19.86-14.21 10.35-20.54 14.82-22.6 15.94l-0.29 0.17c-8.72 5.67-10.7 13.06-6.09 22.62l0.17 0.36 0.23 0.32c3.51 4.81 7.69 7.2 12.66 7.2 3.04 0 6.37-0.89 10.02-2.68l0.41-0.23c23.43-14.82 41.55-26.74 53.85-35.44l0.34-0.24 0.29-0.31c6.97-7.29 8.11-14.72 3.45-22.71l-0.21-0.33z" p-id="9292"></path><path d="M452.17 467.23l-0.26-0.03H167.26l-0.5 0.03c-7.78 0.89-12 5.96-12.87 15.49l-0.02 0.22v0.22c0.07 10.44 3.85 15.91 11.56 16.73l0.23 0.02H296.4v39.79l0.03 0.5c0.21 1.78-0.29 3.35-1.43 4.55-2.83 2.99-9.67 3.76-21.51 2.42l-0.21-0.03c-4.78-0.81-8.1-1.25-9.87-1.32l-0.33-0.01-0.33 0.03c-7.65 0.88-11.83 5.4-12.79 13.83l-0.05 0.47 0.04 0.47c0.89 8.62 5.66 14.03 14.55 16.56l0.23 0.05c13.22 2.97 24.53 4.47 33.88 4.47 11.57 0 20.16-2.28 25.65-6.82 5.31-4.39 7.85-11.13 7.55-19.94V499.9H453l0.53-0.03c6.66-0.83 10.5-6.31 11.46-16.31l0.05-0.62-0.12-0.61c-1.73-9.2-6.02-14.28-12.75-15.1z m98.57-127.45h298.63c15.41 0 27.94-12.53 27.94-27.94 0-15.41-12.53-27.94-27.94-27.94H550.74c-15.41 0-27.94 12.53-27.94 27.94 0.01 15.41 12.54 27.94 27.94 27.94z m-98.57-60.33l-0.25-0.03H167.29l-0.52 0.03c-6.71 0.82-10.58 5.94-11.48 15.23l-0.04 0.4 0.03 0.4c0.9 10.17 4.77 15.76 11.48 16.58l84.4 0.03v17.97l-60.5-0.01c-0.66-0.04-1.31-0.07-1.92-0.07-4.75 0-8.49 1.23-11.09 3.66-3.44 3.21-5.11 8.47-5.11 16.04l-0.01 42.91c-0.35 5.48 0.85 9.64 3.56 12.38 2.94 2.97 7.81 4.48 14.51 4.48 0.89 0 1.82-0.02 2.78-0.08l0.22-0.01h230.47c13.21 0 19.64-6.01 19.64-18.38v-45.24c0-10.55-6.42-15.67-19.64-15.67H367.8v-17.98h83.9l0.46-0.02c7.73-0.82 11.93-6.24 12.88-16.58l0.03-0.41-0.04-0.41c-0.95-9.33-5.14-14.31-12.86-15.22z m-121.04 79.28v19.22h-45.92v-19.22h45.92z m0-46.72v17.98h-45.92v-17.98h45.92z m79.86 46.72v19.22h-43.2v-19.22h43.2z m-159.84 0v20.57h-45.92v-20.57h45.92z m-63.14 91.82l239.54 0.03 1.13-0.82c6.49-4.65 9.74-9.15 9.65-13.38-0.09-4.11-3.33-8.3-9.67-12.47l-1.09-0.72H189.56c-2.56 0-10.37 0-11.69 12.91l-0.02 0.24v0.24c0.07 8.53 3.4 13.1 10.16 13.97zM918.01 811.63l-49.79-50.07c16.29-25.46 24.87-54.82 24.82-85.08 0-87.41-71.11-158.52-158.52-158.52S576 589.07 576 676.48c0.04 42.32 16.55 82.11 46.48 112.04 29.93 29.93 69.72 46.43 112.04 46.48h0.19c32.52 0 64.84-10.33 91.33-29.15l48.75 48.99c5.96 5.96 13.78 8.94 21.61 8.94s15.65-2.98 21.61-8.94c11.89-11.91 11.91-31.29 0-43.21z m-183.39-19.41C670.87 792.22 619 740.35 619 676.6c0.08-63.68 51.95-115.55 115.62-115.62 63.75 0 115.62 51.87 115.62 115.62 0.01 63.75-51.87 115.62-115.62 115.62z" p-id="9293"></path></svg>