<svg xmlns="http://www.w3.org/2000/svg" viewBox="0 0 1024 1024" version="1.1"><path d="M409.6 870.4H76.8a25.6 25.6 0 0 1-25.6-25.6V76.8a25.6 25.6 0 0 1 25.6-25.6h665.6a25.6 25.6 0 0 1 25.6 25.6v315.6a25.6 25.6 0 0 0 51.2 0V76.8a76.8 76.8 0 0 0-76.8-76.8H76.8a76.8 76.8 0 0 0-76.8 76.8v768a76.8 76.8 0 0 0 76.8 76.8h332.8a25.6 25.6 0 0 0 0-51.2z" fill="" p-id="1402"></path><path d="M501.5 179.7l-125.4 125.2-125.4-125.2-36.1 36.1 101.1 101.4H222.5v51.2h128v67.6H222.2v51.2h128.3v188.4h51.2v-188.4h127.7v-51.2h-127.7v-67.6h128v-51.2h-93.2L537.6 215.8l-36.1-36.1z" fill="" p-id="1403"></path><path d="M742.4 460.8a281.6 281.6 0 1 0 281.6 281.6 281.6 281.6 0 0 0-281.6-281.6z m0 512a230.4 230.4 0 1 1 230.4-230.4 230.4 230.4 0 0 1-230.4 230.4z" fill="" p-id="1404"></path><path d="M902.1 657.4a25.6 25.6 0 0 0-36.1 0l-144.9 144.9-90.6-90.6a25.6 25.6 0 0 0-36.1 36.1l108.5 108.5a25.6 25.6 0 0 0 36.1 0l162.8-162.8a25.6 25.6 0 0 0 0.3-36.1z" fill="" p-id="1405"></path></svg>