<svg xmlns="http://www.w3.org/2000/svg" viewBox="0 0 1024 1024" version="1.1"><path d="M800 96h-64c-17.7 0-32 14.3-32 32s14.3 32 32 32h64c17.7 0 32 14.3 32 32v672c0 17.7-14.3 32-32 32H224c-17.7 0-32-14.3-32-32V192c0-17.7 14.3-32 32-32h64c17.7 0 32-14.3 32-32s-14.3-32-32-32h-64c-53 0-96 43-96 96v672c0 53 43 96 96 96h576c53 0 96-43 96-96V192c0-53-43-96-96-96zM384.1 192H640c17.7 0 32-14.3 32-32V96c0-17.7-14.3-32-32-32H384.1c-17.7 0-32 14.3-32 32v64c0 17.7 14.3 32 32 32zM352 737c17.7 0 32-14.3 32-32V512c0-17.7-14.3-32-32-32s-32 14.3-32 32v193c0 17.7 14.3 32 32 32zM480 448v257c0 17.7 14.3 32 32 32s32-14.3 32-32V448c0-17.7-14.3-32-32-32s-32 14.3-32 32zM640 320v385c0 17.7 14.3 32 32 32s32-14.3 32-32V320c0-17.7-14.3-32-32-32s-32 14.3-32 32z" p-id="1099"></path></svg>