<svg xmlns="http://www.w3.org/2000/svg" viewBox="0 0 1024 1024" version="1.1"><path d="M723.2 243.2 569.6 505.6l121.6 0 0 57.6L550.4 563.2 550.4 640l140.8 0L691.2 704 550.4 704l0 115.2L480 819.2 480 704 332.8 704 332.8 640l147.2 0L480 563.2 332.8 563.2 332.8 505.6l128 0L300.8 243.2 384 243.2c70.4 128 115.2 211.2 128 249.6l0 0C524.8 473.6 537.6 448 556.8 403.2l89.6-160L723.2 243.2 723.2 243.2zM723.2 243.2M832 640c-19.2 0-32 12.8-32 32S812.8 704 832 704l83.2 0c-70.4 153.6-224 256-403.2 256-249.6 0-448-198.4-448-448 0-249.6 198.4-448 448-448 224 0 409.6 166.4 441.6 384l64 0C985.6 198.4 774.4 0 512 0 230.4 0 0 230.4 0 512c0 281.6 230.4 512 512 512 192 0 358.4-108.8 448-262.4L960 832c0 19.2 12.8 32 32 32 19.2 0 32-12.8 32-32l0-160c0-6.4 0-32-32-32L832 640 832 640zM832 640" p-id="796"></path></svg>