<?xml version="1.0" standalone="no"?><!DOCTYPE svg PUBLIC "-//W3C//DTD SVG 1.1//EN" "http://www.w3.org/Graphics/SVG/1.1/DTD/svg11.dtd"><svg t="1700552355543" class="icon" viewBox="0 0 1024 1024" version="1.1" xmlns="http://www.w3.org/2000/svg" p-id="5059" xmlns:xlink="http://www.w3.org/1999/xlink" width="200" height="200"><path d="M927.2 960.6H96.7c-17.7 0-32-14.3-32-32v-172c0-17.6 14.1-31.8 31.7-32 29.8-0.3 54.1-24.8 54.1-54.6s-24.3-54.4-54.1-54.6c-17.6-0.2-31.7-14.4-31.7-32V416.5c0-17.7 14.3-32 32-32h830.5c17.7 0 32 14.3 32 32v166.7c0 17.6-14.2 31.9-31.8 32-30 0.1-54.4 24.7-54.4 54.7s24.4 54.5 54.4 54.7c17.6 0.1 31.8 14.4 31.8 32v172c0 17.6-14.3 32-32 32z m-798.5-64h766.5V784.1c-19.4-5.5-37.1-15.8-51.7-30.5-22.3-22.4-34.6-52.1-34.6-83.7s12.3-61.3 34.6-83.7c14.6-14.6 32.3-25 51.7-30.5V448.5H128.7v107.3c19.3 5.5 36.9 15.9 51.4 30.5 22.2 22.4 34.4 52 34.4 83.5s-12.2 61.2-34.4 83.5c-14.5 14.6-32.2 25-51.4 30.5v112.8zM926.5 289.4H130.9c-17.7 0-32-14.3-32-32s14.3-32 32-32h795.6c17.7 0 32 14.3 32 32s-14.4 32-32 32zM929.5 128.6H288.9c-17.7 0-32-14.3-32-32s14.3-32 32-32h640.6c17.7 0 32 14.3 32 32s-14.4 32-32 32z" p-id="5060"></path><path d="M484 819.2c-2.9-5.8-7.7-14.7-14.4-26.6-3-5.2-5.3-9.3-6.9-12.2 22.9-7.9 44.4-17 64.5-27.2h-61.7v-36.6h288.8v36.6h-70.8c28.1 8.9 52.4 17 73 24.4L735.3 816c-24.1-9.8-51.2-20.7-81.6-32.8l18.4-30h-29.8V768c0 16.8-2.9 28.6-8.6 35.5-5.8 7.1-16.4 11.1-31.6 12-13.2 0.7-25.9 1.2-38.1 1.6-2.2-10.3-4.8-21.2-8-32.8-23.9 12.6-47.9 24.3-72 34.9z m-5.2-156.4v-85.3h72.5v-14.1h-80v-37.3h279.2v37.3h-82v14.1h72.8v85.3H478.8z m7.4 43.8v-34.1H734v34.1H486.2z m35-76.9h30.2v-19.1h-30.2v19.1z m45.9 146.1h10.2c6.1 0 10.5-1.4 13-4.1 2.5-2.7 3.8-7.2 3.8-13.4v-5h-43.9l16.9 22.5z m27.8-198.3h30v-14.1h-30v14.1z m0 52.2h30v-19.1h-30v19.1z m73.6 0H699v-19.1h-30.5v19.1zM257.4 511.8h64v64h-64zM257.4 640.8h64v64h-64zM257.4 769.8h64v64h-64z" p-id="5061"></path></svg>