<svg xmlns="http://www.w3.org/2000/svg" viewBox="0 0 1024 1024" version="1.1"><path d="M727.8 824.5c-125.5 0-258.8-42-258.8-119.9s133.3-119.9 258.8-119.9 258.8 42 258.8 119.9-133.4 119.9-258.8 119.9z m0-190c-127.6 0-208.9 41.5-208.9 70.1s81.4 70.1 209 70.1S936.7 733.2 936.7 704.6s-81.4-70.1-208.9-70.1zM727.8 1023.9c-125.5 0-258.8-42-258.8-119.9 0-17.6 7.3-43.6 41.9-67.9l28.6 40.7c-13.3 9.4-20.7 19.1-20.7 27.2 0 28.6 81.4 70.1 208.9 70.1s208.9-41.5 208.9-70.1c0-8.1-7.4-17.8-20.7-27.2l28.6-40.7c34.6 24.3 41.9 50.3 41.9 67.9-0 77.9-133.3 119.9-258.7 119.9zM727.8 926.8c-125.5 0-258.8-42-258.8-119.9 0-17.6 7.3-43.6 41.9-67.9l28.6 40.7c-13.3 9.4-20.7 19.1-20.7 27.2 0 28.6 81.4 70.1 208.9 70.1s208.9-41.5 208.9-70.1c0-8.1-7.4-17.8-20.7-27.2l28.6-40.7c34.6 24.3 41.9 50.3 41.9 67.9-0 77.9-133.3 119.9-258.7 119.9zM645.1 171.6h-359.4a49.9 49.9 0 0 1-49.8-49.8V49.8A49.9 49.9 0 0 1 285.6 0h359.4a49.9 49.9 0 0 1 49.8 49.8v72a49.9 49.9 0 0 1-49.8 49.8z m0-49.8z m-359.4-72v72h359.3l0.1-72zM475.5 1024H112.1A74.8 74.8 0 0 1 37.4 949.3V117.1a74.8 74.8 0 0 1 74.7-74.7h51.3v49.8H112.1a24.9 24.9 0 0 0-24.9 24.9v832.2a24.9 24.9 0 0 0 24.9 24.9h363.4zM893.3 560.6h-49.8V117.1a24.9 24.9 0 0 0-24.9-24.9h-57.5V42.4h57.5a74.8 74.8 0 0 1 74.7 74.7zM230.2 238h347.6v49.8H230.2zM223.7 432.9h506.7v49.8H223.7z" p-id="1588"></path></svg>