<svg xmlns="http://www.w3.org/2000/svg" viewBox="0 0 1024 1024" version="1.1"><path d="M931.8 985.6H81.9c-14.3 0-25.6-11.3-25.6-25.6V87c0-14.3 11.3-25.6 25.6-25.6s25.6 11.3 25.6 25.6v847.4h824.3c14.3 0 25.6 11.3 25.6 25.6s-11.3 25.6-25.6 25.6zM286.7 865.3c-14.3 0-25.6-11.3-25.6-25.6v-261.1c0-14.3 11.3-25.6 25.6-25.6s25.6 11.3 25.6 25.6v261.1c0 14.3-11.3 25.6-25.6 25.6zM440.3 865.3c-14.3 0-25.6-11.3-25.6-25.6V322.6c0-14.3 11.3-25.6 25.6-25.6s25.6 11.3 25.6 25.6v517.1c0 14.3-11.3 25.6-25.6 25.6zM599 865.3c-14.3 0-25.6-11.3-25.6-25.6V445.4c0-14.3 11.3-25.6 25.6-25.6s25.6 11.3 25.6 25.6v394.2c0 14.3-11.3 25.6-25.6 25.6zM757.8 865.3c-14.3 0-25.6-11.3-25.6-25.6V199.7c0-14.3 11.3-25.6 25.6-25.6s25.6 11.3 25.6 25.6v640c0 14.3-11.3 25.6-25.6 25.6z" p-id="886"></path></svg>