<svg xmlns="http://www.w3.org/2000/svg" viewBox="0 0 1024 1024" version="1.1"><path d="M977.9 993.3H271.4c-14.3 0-25.6-11.3-25.6-25.6v-204.8c0-14.3 11.3-25.6 25.6-25.6s25.6 11.3 25.6 25.6v179.2h655.4V286.7h-184.3c-14.3 0-25.6-11.3-25.6-25.6s11.3-25.6 25.6-25.6h209.9c14.3 0 25.6 11.3 25.6 25.6v706.6c0 14.3-11.3 25.6-25.6 25.6zM747.5 793.6H41c-14.3 0-25.6-11.3-25.6-25.6V61.4c0-14.3 11.3-25.6 25.6-25.6h706.6c14.3 0 25.6 11.3 25.6 25.6v706.6c0 14.3-11.3 25.6-25.6 25.6zM66.6 742.4h655.4V87H66.6v655.4zM563.2 256H225.3c-14.3 0-25.6-11.3-25.6-25.6s11.3-25.6 25.6-25.6h337.9c14.3 0 25.6 11.3 25.6 25.6s-11.3 25.6-25.6 25.6zM747.5 435.2H414.7c-14.3 0-25.6-11.3-25.6-25.6s11.3-25.6 25.6-25.6h332.8c14.3 0 25.6 11.3 25.6 25.6s-11.3 25.6-25.6 25.6zM563.2 614.4H225.3c-14.3 0-25.6-11.3-25.6-25.6s11.3-25.6 25.6-25.6h337.9c14.3 0 25.6 11.3 25.6 25.6s-11.3 25.6-25.6 25.6zM461.8 530.4c-6.7 0-13.3-2.6-17.9-7.7L352.3 431.1c-9.7-9.7-10.2-26.1 0-36.4l91.6-92.2c9.7-10.2 26.1-10.2 36.4 0 10.2 9.7 10.2 26.1 0 36.4L406.5 413.2l73.7 73.7c10.2 10.2 10.2 26.1 0 36.4-5.1 4.6-11.8 7.2-18.4 7.2z" p-id="916"></path></svg>