<svg xmlns="http://www.w3.org/2000/svg" viewBox="0 0 1024 1024" version="1.1"><path d="M983 995.8H276c-14.3 0-25.6-11.3-25.6-25.6v-202.8c0-14.3 11.3-25.6 25.6-25.6s25.6 11.3 25.6 25.6v177.2H957.4V288.8h-182.8c-14.3 0-25.6-11.3-25.6-25.6s11.3-25.6 25.6-25.6H983c14.3 0 25.6 11.3 25.6 25.6v707.1c0 14.3-11.3 25.6-25.6 25.6zM753.2 793.6H46.1c-14.3 0-25.6-11.3-25.6-25.6V60.9c0-14.3 11.3-25.6 25.6-25.6h707.1c14.3 0 25.6 11.3 25.6 25.6V768c0 14.3-11.3 25.6-25.6 25.6zM71.7 742.4h655.9V86.5H71.7V742.4zM566.8 256H232.4c-14.3 0-25.6-11.3-25.6-25.6s11.3-25.6 25.6-25.6h334.3c14.3 0 25.6 11.3 25.6 25.6s-11.3 25.6-25.6 25.6zM566.8 409.6H232.4c-14.3 0-25.6-11.3-25.6-25.6s11.3-25.6 25.6-25.6h334.3c14.3 0 25.6 11.3 25.6 25.6s-11.3 25.6-25.6 25.6zM364 579.6H232.4c-14.3 0-25.6-11.3-25.6-25.6s11.3-25.6 25.6-25.6h131.6c14.3 0 25.6 11.3 25.6 25.6s-11.3 25.6-25.6 25.6zM568.3 694.8c-57.3 0-103.9-46.6-103.9-103.9 0-57.3 46.6-103.9 103.9-103.9s103.9 46.6 103.9 103.9c0 57.3-46.6 103.9-103.9 103.9z m0-156.7c-29.2 0-52.7 23.6-52.7 52.7s23.6 52.7 52.7 52.7 52.7-23.6 52.7-52.7-23.6-52.7-52.7-52.7z" p-id="946"></path></svg>