<?xml version="1.0" standalone="no"?><!DOCTYPE svg PUBLIC "-//W3C//DTD SVG 1.1//EN" "http://www.w3.org/Graphics/SVG/1.1/DTD/svg11.dtd"><svg t="1700633460660" class="icon" viewBox="0 0 1024 1024" version="1.1" xmlns="http://www.w3.org/2000/svg" p-id="15845" xmlns:xlink="http://www.w3.org/1999/xlink" width="200" height="200"><path d="M807.384615 1024h-590.76923a118.153846 118.153846 0 0 1-118.153847-118.153846V118.153846a118.153846 118.153846 0 0 1 118.153847-118.153846h590.76923a118.153846 118.153846 0 0 1 118.153847 118.153846v787.692308a118.153846 118.153846 0 0 1-118.153847 118.153846zM216.615385 78.769231a39.384615 39.384615 0 0 0-39.384616 39.384615v787.692308a39.384615 39.384615 0 0 0 39.384616 39.384615h590.76923a39.384615 39.384615 0 0 0 39.384616-39.384615V118.153846a39.384615 39.384615 0 0 0-39.384616-39.384615z" p-id="15846"></path><path d="M320.590769 890.88a39.384615 39.384615 0 0 1-39.384615-39.384615v-216.615385a39.384615 39.384615 0 1 1 78.769231 0v216.615385a39.384615 39.384615 0 0 1-39.384616 39.384615zM512 890.88a39.384615 39.384615 0 0 1-39.384615-39.384615V539.569231a39.384615 39.384615 0 0 1 78.76923 0v311.926154a39.384615 39.384615 0 0 1-39.384615 39.384615zM703.409231 890.88a39.384615 39.384615 0 0 1-39.384616-39.384615V444.652308a39.384615 39.384615 0 0 1 78.769231 0v406.843077a39.384615 39.384615 0 0 1-39.384615 39.384615zM749.095385 198.498462l-156.356923-11.421539 16.935384 35.052308-334.769231 161.476923 33.87077 70.892308 335.163077-161.476924 16.935384 35.446154 88.221539-129.96923z" p-id="15847"></path></svg>