<svg xmlns="http://www.w3.org/2000/svg" viewBox="0 0 1024 1024" version="1.1"><path d="M959.5 559.4c-4.8-9.5-14.6-15.4-25.8-15.4H809.2V102.3c0-15.5-10-25.5-25.5-25.5H236c-15.5 0-25.5 10-25.5 25.5v441.6H91.8c-11.2 0-21.1 5.9-25.8 15.4-4.9 9.8 0 20.1 5.4 30.9l432 351.4 0.1 0.1c4.8 4.8 9.5 4.8 14.9 4.8s10.1 0 14.9-4.8l0.2-0.2L954 590.3c5.5-10.9 10.4-21.1 5.5-30.9zM236 594.8c15.5 0 25.4-10 25.4-25.5V127.8h496.9v441.6c0 15.5 10 25.5 25.5 25.5h76.8L512 882.6S228.9 648.4 164.8 594.9H236z m620.4 4.9l5.3-4.8h0.4l-5.7 4.8zM385.9 493.1c-6.4 0-21.4 2.1-21.4 21.4 0 16.5 10.7 27.1 27.1 27.1h93.9v76.6c0 16.5 10.7 27.1 27.1 27.1 16.5 0 27.1-10.7 27.1-27.1v-82.4h93.9c6.4 0 21.4-2.1 21.4-21.4 0-6.4-2.1-21.4-21.4-21.4h-93.9v-13.7l18-30h80.7c6.4 0 21.4-2.1 21.4-21.4 0-6.4-2.1-21.4-21.4-21.4h-53.9l71-118.2c5.3-5.3 5.3-10.5 5.3-16.1 0-5.5-5.8-16.3-16.4-21.6-6.7-3.3-18-4.8-26.9-1.1-5.6 2.3-9.3 6.2-11.1 11.7l-0.1 0.3-93.7 164-93.7-164c-12-17.9-23.1-15.6-32.4-10.9-10.1 5-16.4 15.5-16.4 27.3 0 5.6 0 10.8 5.3 16.1l0.3 0.3 70.7 117.9h-57.9c-6.4 0-21.4 2.1-21.4 21.4 0 6.4 2.1 21.4 21.4 21.4h85l6.1 24.8V493h-93.7z" p-id="1775"></path></svg>