<?xml version="1.0" standalone="no"?><!DOCTYPE svg PUBLIC "-//W3C//DTD SVG 1.1//EN" "http://www.w3.org/Graphics/SVG/1.1/DTD/svg11.dtd"><svg t="1700634921693" class="icon" viewBox="0 0 1024 1024" version="1.1" xmlns="http://www.w3.org/2000/svg" p-id="32814" xmlns:xlink="http://www.w3.org/1999/xlink" width="200" height="200"><path d="M977.454545 112.174545v836.328728c0 10.519273-6.702545 20.154182-17.454545 25.274182a38.912 38.912 0 0 1-34.350545-0.698182l-125.952-67.118546-125.905455 67.118546a39.098182 39.098182 0 0 1-35.886545 0L512 905.867636l-125.952 67.165091a38.958545 38.958545 0 0 1-35.84 0l-125.905455-67.165091-125.998545 67.211637a38.912 38.912 0 0 1-34.304 0.698182 28.625455 28.625455 0 0 1-17.454545-25.274182V112.174545C46.545455 75.962182 80.942545 46.545455 123.345455 46.545455h777.30909c42.356364 0 76.8 29.370182 76.8 65.62909z m-861.975272 10.286546v586.612364h39.936c12.194909-0.605091 23.738182 4.654545 30.068363 13.637818a24.762182 24.762182 0 0 1 0 29.137454 34.816 34.816 0 0 1-30.068363 13.637818H115.432727v126.091637l96.581818-47.616a37.794909 37.794909 0 0 1 34.909091 0l122.786909 65.349818 122.740364-65.349818a37.794909 37.794909 0 0 1 34.862546 0l122.740363 65.349818 122.647273-65.349818a37.794909 37.794909 0 0 1 34.909091 0l103.610182 47.616v-126.091637h-47.010909a34.816 34.816 0 0 1-29.975273-13.684363 24.808727 24.808727 0 0 1 0-29.090909c7.074909-9.309091 18.338909-14.429091 30.021818-13.637818h46.964364V122.414545c0-4.049455-17.826909-12.660364-22.667637-12.660363H131.072c-4.747636 0-15.592727 8.517818-15.592727 12.660363z m357.189818 613.888a28.904727 28.904727 0 0 1-28.672 29.090909H320.884364a28.904727 28.904727 0 0 1-28.718546-29.090909 28.858182 28.858182 0 0 1 28.718546-29.090909h123.112727a28.997818 28.997818 0 0 1 28.672 29.090909z m246.225454 0a28.904727 28.904727 0 0 1-28.672 29.090909h-123.112727a28.904727 28.904727 0 0 1-28.765091-29.090909c0-16.058182 12.846545-29.090909 28.765091-29.090909h123.112727c15.825455 0 28.672 13.032727 28.672 29.090909z m-52.968727-130.141091a115.246545 115.246545 0 0 1-114.827636-114.920727c0-63.255273 51.665455-114.967273 114.920727-114.967273a115.293091 115.293091 0 0 1 114.920727 114.967273 115.246545 115.246545 0 0 1-114.967272 114.920727z m0-172.404364c-34.443636 0-57.390545 22.993455-57.390545 57.483637 0 34.443636 22.993455 57.437091 57.483636 57.437091 34.490182 0 57.483636-22.993455 57.483636-57.437091 0-34.490182-22.993455-57.483636-57.483636-57.483637h-0.093091z m-172.311273 172.404364c-11.543273 0-17.221818-5.771636-22.993454-11.543273L321.163636 336.104727v241.338182c0 17.221818-11.543273 28.765091-28.765091 28.765091s-28.718545-11.543273-28.718545-28.765091V232.727273c0-11.450182 11.496727-22.993455 22.993455-28.718546s22.946909 0 34.490181 11.496728l143.732364 258.56V232.727273c0-17.221818 11.450182-28.718545 28.672-28.718546s28.718545 11.496727 28.718545 28.718546v344.808727c0 11.496727-11.496727 22.946909-22.993454 28.718545h-5.725091l0.046545-0.046545z" fill="#000000" p-id="32815"></path></svg>