<svg xmlns="http://www.w3.org/2000/svg" viewBox="0 0 1024 1024" version="1.1"><path d="M979.6 117.5C979.6 74.3 944.5 39.2 901.2 39.2L117.5 39.2C74.3 39.2 39.2 74.3 39.2 117.5L39.2 901.2C39.2 944.5 74.3 979.6 117.5 979.6L547.5 979.6C547.8 992.9 548.7 1005.9 550.3 1018.8L117.5 1018.8C52.6 1018.8 0 966.2 0 901.2L0 117.5C0 52.6 52.6 0 117.5 0L901.2 0C966.2 0 1018.8 52.6 1018.8 117.5L1018.8 594.5C1006 591.6 992.9 589.4 979.6 587.8L979.6 117.5ZM688.7 283.3 254.5 283.3C238.9 283.3 226.2 270.7 226.2 255L226.2 254.5C226.2 238.9 238.9 226.2 254.5 226.2L688.7 226.2C704.3 226.2 717 238.9 717 254.5L717 255C717 270.7 704.3 283.3 688.7 283.3ZM688.8 528.4 254.4 528.4C238.9 528.4 226.2 515.7 226.2 500.2 226.2 484.6 238.9 472 254.4 472L688.8 472C704.4 472 717 484.6 717 500.2 717 515.7 704.4 528.4 688.8 528.4ZM722.3 695.6 849 822.3 975.7 695.6C986.8 684.5 1004.7 684.5 1015.8 695.6 1026.8 706.6 1026.8 724.5 1015.8 735.6L889 862.3 1002.4 975.7C1013.5 986.8 1013.5 1004.7 1002.4 1015.8 991.4 1026.8 973.4 1026.8 962.4 1015.8L849 902.4 735.6 1015.8C724.5 1026.8 706.6 1026.8 695.6 1015.8 684.5 1004.7 684.5 986.8 695.6 975.7L809 862.3 682.2 735.6C671.2 724.5 671.2 706.6 682.2 695.6 693.3 684.5 711.2 684.5 722.3 695.6Z" p-id="856"></path></svg>