<?xml version="1.0" standalone="no"?><!DOCTYPE svg PUBLIC "-//W3C//DTD SVG 1.1//EN" "http://www.w3.org/Graphics/SVG/1.1/DTD/svg11.dtd"><svg t="1700551268013" class="icon" viewBox="0 0 1024 1024" version="1.1" xmlns="http://www.w3.org/2000/svg" p-id="2920" xmlns:xlink="http://www.w3.org/1999/xlink" width="200" height="200"><path d="M704 256c17.7 0 32 14.3 32 32s-14.3 32-32 32H256c-17.7 0-32-14.3-32-32s14.3-32 32-32h448zM384 448c17.7 0 32 14.3 32 32s-14.3 32-32 32H256c-17.7 0-32-14.3-32-32s14.3-32 32-32h128z m320 160c17.7 0 32 14.3 32 32v64h64c17.7 0 32 14.3 32 32s-14.3 32-32 32h-96c-17.7 0-32-14.3-32-32v-96c0-17.7 14.3-32 32-32z m0-32c-88.4 0-160 71.6-160 160s71.6 160 160 160 160-71.6 160-160-71.6-160-160-160zM832 64c17.7 0 32 14.3 32 32v320c0 17.7-14.3 32-32 32s-32-14.3-32-32V128H160v767.9l288 0.1c17.7 0 32 14.3 32 32s-14.3 32-32 32H128c-17.7 0-32-14.3-32-32V96c0-17.7 14.3-32 32-32h704zM704 512c123.7 0 224 100.3 224 224S827.7 960 704 960 480 859.7 480 736s100.3-224 224-224z" p-id="2921"></path></svg>