<svg xmlns="http://www.w3.org/2000/svg" viewBox="0 0 1024 1024" version="1.1"><path d="M692.1 277.3H381.1c-16.2 0-29.1-13-29.1-29.2v-15.1c0-16.2 13-29.1 29.1-29.1h310.9c16.2 0 29.2 13 29.2 29.1V248.1c1.1 16.2-12.9 29.2-29.1 29.2zM383.3 394.9h288.3c19.5 0-13 18.4-35.6 36.7-13 10.8-16.2 36.7-35.6 36.7H384.3c-20.6 0-36.7-16.2-36.7-36.7 0.1-20.4 15.2-36.7 35.6-36.7zM249.5 277.3H196.6c-16.2 0-29.1-13-29.1-29.2v-15.1c0-16.2 13-29.1 29.1-29.1H249.5c16.2 0 29.2 13 29.2 29.1V248.1c-0.1 16.2-13 29.2-29.2 29.2z m-3.3 190H196.6c-16.2 0-29.1-13-29.1-29.1v-15.1c0-16.2 13-29.2 29.1-29.2h49.6c16.1 0.2 28.9 13.1 29.2 29.2v15.1c-0.1 16.1-13 29.1-29.2 29.1zM196.6 598.9h50.7c16.2 0 29.1 13 29.1 29.2v15.1c0 16.2-13 29.1-29.1 29.1H196.6c-16.1-0.2-28.9-13.1-29.1-29.1v-15.1c-0.1-16.2 12.9-29.2 29.1-29.2z m167.2 0h110.2c45.2 0 16.2 34.5-3.2 73.3h-105.9c-7.5 0-15.1-16.2-15.1-36.7 0-20.3 6.4-36.6 14-36.6z m0 0M807.3 467.3V129.7c1.5-29.2-22.5-56.4-54-54H130.1c-24.2 0-48.9 24.8-48.9 48.9v626.1c0 25.3 25.7 51 51 51h326.7v59.7h-364.9c-40 0-73.3-32.5-73.3-73.3V87.2c0-40 32.5-73.3 73.3-73.3h700.6c40 0 73.3 32.5 73.3 73.3v380l-60.7 0.1z m0 0M751.4 1010.3c-138.2 0-251.5-112.3-251.51-251.51 0-138.2 112.3-251.5 251.51-251.5 139.3 0 251.5 112.3 251.5 251.5-1.1 139.3-113.4 251.5-251.5 251.51z m0-452.1c-102.5 0-196.7 98-196.7 201.7 0 102.5 93 201.7 196.7 201.7 103.6 0 201.7-98 201.7-201.7-1.1-103.6-99.1-201.7-201.7-201.7z m0 0M822.6 769.6c-15.1-13-33.4-22.6-52.9-28.1v-62.6c18.4 1.1 36.7 6.4 52.9 16.2v-41c-16.2-7.5-34.5-10.8-52.9-10.8v-29.2h-23.7v29.2c-18.4 1.1-35.6 7.5-48.5 20.6-11.9 10.8-19.5 25.9-19.5 42.1 0 15.1 5.5 30.2 16.2 41 15.1 13 32.5 22.6 51.8 28.1v60.4c-11.9-1.1-22.6-3.2-34.5-7.5-10.8-3.2-20.6-7.5-29.2-14v43.2c19.5 9.7 42.1 15.1 63.7 15.1v33.4h23.7v-34.5c18.4-1.1 35.6-7.5 50.7-19.5 11.9-10.8 18.4-25.9 18.4-42.1 0.1-15.1-5.4-30.2-16.2-39.9z m-76.6-37.8c-16.2-7.5-24.8-17.3-24.8-29.2 0-6.4 2.1-13 7.5-17.3 4.4-4.4 10.8-7.5 17.3-7.5v54z m23.8 102.5v-50.7c17.3 7.5 24.9 16.2 24.9 27-0.2 14.1-7.8 21.7-24.9 23.7z m0 0" p-id="1159"></path></svg>