<svg xmlns="http://www.w3.org/2000/svg" viewBox="0 0 1024 1024" version="1.1"><path d="M561 385.6H266.8V435.2h294.2v-49.6z m-171.6 99.2H266.8v24.8h122.6v-24.8zM266.8 732.8v49.6h294.2v-49.6H266.8z m24.5-669.6v124h48.5l0.5-74.4h490.4v644.8l-49-0.4v50h98.1V63.2H291.3zM144.2 956h465.8V927.5l22.2 22.9 97.3-100.4 0.8-18.1h2.2v-620H144.2v743.9z m465.8-40.3v-83.6h76.9l-76.9 83.6zM193.3 261.6h490.4v520.8h-122.6v49.6h0.6l0.9 74.4H193.3V261.6z m196.2 396.8H266.8v24.8h122.6v-24.8z m171.6-99.2H266.8v49.6h294.2v-49.6z" fill="" p-id="1310"></path></svg>