<svg xmlns="http://www.w3.org/2000/svg" viewBox="0 0 1026 1024" version="1.1"><path d="M739.3 930h-449.3c-46 0-83.6-37.6-83.6-83.6V177.6c0-46 37.6-83.6 83.6-83.6h449.3c46 0 83.6 37.6 83.6 83.6v668.7c0 46-37.6 83.6-83.6 83.6z m-449.3-794.1c-23 0-41.8 18.8-41.8 41.8v668.7c0 23 18.8 41.8 41.8 41.8h449.3c23 0 41.8-18.8 41.8-41.8V177.6c0-23-18.8-41.8-41.8-41.8h-449.3z" fill="#333333" p-id="1465"></path><path d="M540.7 463.4l-114.9-62.7-114.9 62.7V94h229.9v369.4z m-114.9-110.2l73.1 40.2V135.8h-146.3v257.6l73.1-40.2zM697.5 760.7h-365.7c-11.5 0-20.9-9.4-20.9-20.9s9.4-20.9 20.9-20.9h365.7c11.5 0 20.9 9.4 20.9 20.9s-9.4 20.9-20.9 20.9zM514.6 652.5h-182.9c-11.5 0-20.9-9.4-20.9-20.9s9.4-20.9 20.9-20.9h182.9c11.5 0 20.9 9.4 20.9 20.9s-9.4 20.9-20.9 20.9z" fill="#333333" p-id="1466"></path></svg>